<svg xmlns="http://www.w3.org/2000/svg" xmlns:xlink="http://www.w3.org/1999/xlink" width="1024" zoomAndPan="magnify" viewBox="0 0 768 767.999994" height="1024" preserveAspectRatio="xMidYMid meet" version="1.0"><defs><g/></defs><path fill="#14532d" d="M 52.847656 484.570312 L 215.171875 484.570312 L 215.171875 505.742188 L 52.847656 505.742188 Z M 52.847656 484.570312 " fill-opacity="1" fill-rule="nonzero"/><g fill="#14532d" fill-opacity="1"><g transform="translate(52.847924, 470.454605)"><g><path d="M 141.546875 -55.125 L 20.828125 -1.96875 L 20.828125 -36.703125 L 102.375 -69.453125 L 102.375 -70.984375 L 20.828125 -103.75 L 20.828125 -138.46875 L 141.546875 -85.3125 Z M 141.546875 -55.125 "/></g></g></g><g fill="#000000" fill-opacity="1"><g transform="translate(215.170879, 470.454605)"><g/></g></g><g fill="#581c87" fill-opacity="1"><g transform="translate(271.134806, 470.454605)"><g><path d="M 15.265625 0 L 15.265625 -175.59375 L 133.578125 -175.59375 L 133.578125 -144.984375 L 52.390625 -144.984375 L 52.390625 -103.140625 L 127.484375 -103.140625 L 127.484375 -72.53125 L 52.390625 -72.53125 L 52.390625 -30.609375 L 133.921875 -30.609375 L 133.921875 0 Z M 15.265625 0 "/></g></g></g><g fill="#581c87" fill-opacity="1"><g transform="translate(418.956764, 470.454605)"><g><path d="M 85.5625 -175.59375 L 122.265625 -175.59375 L 122.265625 -53.15625 C 122.265625 -41.84375 119.734375 -32.023438 114.671875 -23.703125 C 109.617188 -15.390625 102.601562 -8.957031 93.625 -4.40625 C 84.65625 0.132812 74.222656 2.40625 62.328125 2.40625 C 51.753906 2.40625 42.164062 0.519531 33.5625 -3.25 C 24.957031 -7.03125 18.140625 -12.75 13.109375 -20.40625 C 8.085938 -28.0625 5.601562 -37.722656 5.65625 -49.390625 L 42.609375 -49.390625 C 42.722656 -42.410156 44.738281 -36.988281 48.65625 -33.125 C 52.570312 -29.269531 57.757812 -27.34375 64.21875 -27.34375 C 78.332031 -27.34375 85.445312 -35.945312 85.5625 -53.15625 Z M 85.5625 -175.59375 "/></g></g></g><g fill="#581c87" fill-opacity="1"><g transform="translate(556.538338, 470.454605)"><g><path d="M 15.265625 0 L 15.265625 -175.59375 L 84.53125 -175.59375 C 104.476562 -175.59375 119.953125 -170.390625 130.953125 -159.984375 C 141.960938 -149.578125 147.46875 -135.660156 147.46875 -118.234375 C 147.46875 -106.234375 144.796875 -95.972656 139.453125 -87.453125 C 134.109375 -78.929688 126.4375 -72.53125 116.4375 -68.25 L 153.734375 0 L 112.75 0 L 79.484375 -62.25 L 52.390625 -62.25 L 52.390625 0 Z M 52.390625 -92.078125 L 77.59375 -92.078125 C 98.6875 -92.078125 109.234375 -100.796875 109.234375 -118.234375 C 109.234375 -136.234375 98.628906 -145.234375 77.421875 -145.234375 L 52.390625 -145.234375 Z M 52.390625 -92.078125 "/></g></g></g></svg>