<svg xmlns="http://www.w3.org/2000/svg" xmlns:xlink="http://www.w3.org/1999/xlink" width="1024" zoomAndPan="magnify" viewBox="0 0 768 767.999994" height="1024" preserveAspectRatio="xMidYMid meet" version="1.0"><defs><g/></defs><path fill="#a6a6a6" d="M 718.058594 768 L 49.941406 768 C 22.421875 768 0 745.578125 0 718.058594 L 0 49.941406 C 0 22.421875 22.421875 0 49.941406 0 L 718.058594 0 C 745.578125 0 768 22.421875 768 49.941406 L 768 718.058594 C 768 745.578125 745.578125 768 718.058594 768 " fill-opacity="1" fill-rule="nonzero"/><path fill="#166534" d="M 105.980469 468.800781 L 242.300781 468.800781 L 242.300781 488.261719 L 105.980469 488.261719 Z M 105.980469 468.800781 " fill-opacity="1" fill-rule="nonzero"/><g fill="#166534" fill-opacity="1"><g transform="translate(105.98007, 457.678163)"><g><path d="M 118.859375 -46.28125 L 17.5 -1.65625 L 17.5 -30.8125 L 85.953125 -58.3125 L 85.953125 -59.609375 L 17.5 -87.109375 L 17.5 -116.265625 L 118.859375 -71.625 Z M 118.859375 -46.28125 "/></g></g></g><g fill="#6b21a8" fill-opacity="1"><g transform="translate(242.302039, 457.678163)"><g/></g></g><g fill="#6b21a8" fill-opacity="1"><g transform="translate(289.284898, 457.678163)"><g><path d="M 12.8125 0 L 12.8125 -147.4375 L 112.15625 -147.4375 L 112.15625 -121.734375 L 43.984375 -121.734375 L 43.984375 -86.609375 L 107.046875 -86.609375 L 107.046875 -60.90625 L 43.984375 -60.90625 L 43.984375 -25.703125 L 112.453125 -25.703125 L 112.453125 0 Z M 12.8125 0 "/></g></g></g><g fill="#6b21a8" fill-opacity="1"><g transform="translate(413.454113, 457.678163)"><g><path d="M 71.84375 -147.4375 L 102.65625 -147.4375 L 102.65625 -44.625 C 102.65625 -35.125 100.53125 -26.882812 96.28125 -19.90625 C 92.03125 -12.925781 86.140625 -7.523438 78.609375 -3.703125 C 71.078125 0.109375 62.316406 2.015625 52.328125 2.015625 C 43.453125 2.015625 35.398438 0.429688 28.171875 -2.734375 C 20.953125 -5.898438 15.226562 -10.695312 11 -17.125 C 6.78125 -23.5625 4.695312 -31.675781 4.75 -41.46875 L 35.78125 -41.46875 C 35.875 -35.613281 37.5625 -31.066406 40.84375 -27.828125 C 44.132812 -24.585938 48.492188 -22.96875 53.921875 -22.96875 C 65.773438 -22.96875 71.75 -30.1875 71.84375 -44.625 Z M 71.84375 -147.4375 "/></g></g></g><g fill="#6b21a8" fill-opacity="1"><g transform="translate(528.985459, 457.678163)"><g><path d="M 12.8125 0 L 12.8125 -147.4375 L 70.984375 -147.4375 C 87.734375 -147.4375 100.722656 -143.066406 109.953125 -134.328125 C 119.191406 -125.597656 123.8125 -113.910156 123.8125 -99.265625 C 123.8125 -89.191406 121.566406 -80.578125 117.078125 -73.421875 C 112.597656 -66.273438 106.160156 -60.898438 97.765625 -57.296875 L 129.078125 0 L 94.671875 0 L 66.734375 -52.265625 L 43.984375 -52.265625 L 43.984375 0 Z M 43.984375 -77.3125 L 65.15625 -77.3125 C 82.863281 -77.3125 91.71875 -84.628906 91.71875 -99.265625 C 91.71875 -114.390625 82.8125 -121.953125 65 -121.953125 L 43.984375 -121.953125 Z M 43.984375 -77.3125 "/></g></g></g></svg>