<svg xmlns="http://www.w3.org/2000/svg" xmlns:xlink="http://www.w3.org/1999/xlink" width="1024" zoomAndPan="magnify" viewBox="0 0 768 767.999994" height="1024" preserveAspectRatio="xMidYMid meet" version="1.0"><defs><g/></defs><path fill="#a6a6a6" d="M 718.058594 768 L 49.941406 768 C 22.421875 768 0 745.578125 0 718.058594 L 0 49.941406 C 0 22.421875 22.421875 0 49.941406 0 L 718.058594 0 C 745.578125 0 768 22.421875 768 49.941406 L 768 718.058594 C 768 745.578125 745.578125 768 718.058594 768 " fill-opacity="1" fill-rule="nonzero"/><path fill="#166534" d="M 18.824219 495.382812 L 197.882812 495.382812 L 197.882812 520.945312 L 18.824219 520.945312 Z M 18.824219 495.382812 " fill-opacity="1" fill-rule="nonzero"/><g fill="#166534" fill-opacity="1"><g transform="translate(18.824358, 480.775329)"><g><path d="M 156.109375 -60.796875 L 22.984375 -2.171875 L 22.984375 -40.46875 L 112.890625 -76.59375 L 112.890625 -78.296875 L 22.984375 -114.40625 L 22.984375 -152.703125 L 156.109375 -94.078125 Z M 156.109375 -60.796875 "/></g></g></g><g fill="#6b21a8" fill-opacity="1"><g transform="translate(197.881531, 480.775329)"><g/></g></g><g fill="#6b21a8" fill-opacity="1"><g transform="translate(259.592918, 480.775329)"><g><path d="M 16.828125 0 L 16.828125 -193.640625 L 147.3125 -193.640625 L 147.3125 -159.890625 L 57.765625 -159.890625 L 57.765625 -113.75 L 140.609375 -113.75 L 140.609375 -80 L 57.765625 -80 L 57.765625 -33.75 L 147.6875 -33.75 L 147.6875 0 Z M 16.828125 0 "/></g></g></g><g fill="#6b21a8" fill-opacity="1"><g transform="translate(422.687604, 480.775329)"><g><path d="M 94.359375 -193.640625 L 134.828125 -193.640625 L 134.828125 -58.625 C 134.828125 -46.144531 132.035156 -35.316406 126.453125 -26.140625 C 120.878906 -16.972656 113.144531 -9.882812 103.25 -4.875 C 93.351562 0.132812 81.847656 2.640625 68.734375 2.640625 C 57.078125 2.640625 46.503906 0.5625 37.015625 -3.59375 C 27.523438 -7.75 20.003906 -14.050781 14.453125 -22.5 C 8.910156 -30.945312 6.171875 -41.601562 6.234375 -54.46875 L 47 -54.46875 C 47.125 -46.769531 49.34375 -40.789062 53.65625 -36.53125 C 57.976562 -32.28125 63.703125 -30.15625 70.828125 -30.15625 C 86.390625 -30.15625 94.234375 -39.644531 94.359375 -58.625 Z M 94.359375 -193.640625 "/></g></g></g><g fill="#6b21a8" fill-opacity="1"><g transform="translate(574.436558, 480.775329)"><g><path d="M 16.828125 0 L 16.828125 -193.640625 L 93.234375 -193.640625 C 115.234375 -193.640625 132.300781 -187.90625 144.4375 -176.4375 C 156.570312 -164.96875 162.640625 -149.617188 162.640625 -130.390625 C 162.640625 -117.148438 159.691406 -105.832031 153.796875 -96.4375 C 147.898438 -87.050781 139.4375 -79.992188 128.40625 -75.265625 L 169.53125 0 L 124.34375 0 L 87.65625 -68.640625 L 57.765625 -68.640625 L 57.765625 0 Z M 57.765625 -101.546875 L 85.578125 -101.546875 C 108.835938 -101.546875 120.46875 -111.160156 120.46875 -130.390625 C 120.46875 -150.242188 108.773438 -160.171875 85.390625 -160.171875 L 57.765625 -160.171875 Z M 57.765625 -101.546875 "/></g></g></g></svg>