<svg xmlns="http://www.w3.org/2000/svg" xmlns:xlink="http://www.w3.org/1999/xlink" width="1024" zoomAndPan="magnify" viewBox="0 0 768 149.999998" height="200" preserveAspectRatio="xMidYMid meet" version="1.0"><defs><g/></defs><path fill="#14532d" d="M 15 117.804688 L 84.367188 117.804688 L 84.367188 126.539062 L 15 126.539062 Z M 15 117.804688 " fill-opacity="1" fill-rule="nonzero"/><g fill="#14532d" fill-opacity="1"><g transform="translate(15.000006, 112.563358)"><g><path d="M 60.484375 -23.5625 L 8.90625 -0.84375 L 8.90625 -15.6875 L 43.75 -29.671875 L 43.75 -30.34375 L 8.90625 -44.328125 L 8.90625 -59.171875 L 60.484375 -36.453125 Z M 60.484375 -23.5625 "/></g></g></g><g fill="#000000" fill-opacity="1"><g transform="translate(84.36665, 112.563358)"><g/></g></g><g fill="#581c87" fill-opacity="1"><g transform="translate(108.280534, 112.563358)"><g><path d="M 6.515625 0 L 6.515625 -75.03125 L 57.078125 -75.03125 L 57.078125 -61.953125 L 22.390625 -61.953125 L 22.390625 -44.078125 L 54.484375 -44.078125 L 54.484375 -31 L 22.390625 -31 L 22.390625 -13.078125 L 57.234375 -13.078125 L 57.234375 0 Z M 6.515625 0 "/></g></g></g><g fill="#581c87" fill-opacity="1"><g transform="translate(171.475294, 112.563358)"><g><path d="M 21.84375 -75.03125 L 21.84375 0 L 6.234375 0 L 6.234375 -75.03125 Z M 21.84375 -75.03125 "/></g></g></g><g fill="#581c87" fill-opacity="1"><g transform="translate(199.537447, 112.563358)"><g><path d="M 21.84375 -75.03125 L 21.84375 0 L 6.234375 0 L 6.234375 -75.03125 Z M 21.84375 -75.03125 "/></g></g></g><g fill="#581c87" fill-opacity="1"><g transform="translate(227.599599, 112.563358)"><g><path d="M 6.234375 0 L 6.234375 -56.28125 L 21.84375 -56.28125 L 21.84375 0 Z M 14.015625 -63.53125 C 11.722656 -63.53125 9.742188 -64.304688 8.078125 -65.859375 C 6.421875 -67.410156 5.59375 -69.269531 5.59375 -71.4375 C 5.59375 -73.613281 6.421875 -75.472656 8.078125 -77.015625 C 9.742188 -78.554688 11.722656 -79.328125 14.015625 -79.328125 C 16.335938 -79.328125 18.328125 -78.554688 19.984375 -77.015625 C 21.648438 -75.472656 22.484375 -73.613281 22.484375 -71.4375 C 22.484375 -69.269531 21.648438 -67.410156 19.984375 -65.859375 C 18.328125 -64.304688 16.335938 -63.53125 14.015625 -63.53125 Z M 14.015625 -63.53125 "/></g></g></g><g fill="#581c87" fill-opacity="1"><g transform="translate(255.661752, 112.563358)"><g><path d="M 31.65625 1.09375 C 25.96875 1.09375 21.050781 -0.117188 16.90625 -2.546875 C 12.769531 -4.972656 9.578125 -8.363281 7.328125 -12.71875 C 5.078125 -17.082031 3.953125 -22.148438 3.953125 -27.921875 C 3.953125 -33.734375 5.078125 -38.816406 7.328125 -43.171875 C 9.578125 -47.535156 12.769531 -50.929688 16.90625 -53.359375 C 21.050781 -55.796875 25.96875 -57.015625 31.65625 -57.015625 C 37.34375 -57.015625 42.253906 -55.796875 46.390625 -53.359375 C 50.535156 -50.929688 53.734375 -47.535156 55.984375 -43.171875 C 58.234375 -38.816406 59.359375 -33.734375 59.359375 -27.921875 C 59.359375 -22.148438 58.234375 -17.082031 55.984375 -12.71875 C 53.734375 -8.363281 50.535156 -4.972656 46.390625 -2.546875 C 42.253906 -0.117188 37.34375 1.09375 31.65625 1.09375 Z M 31.734375 -10.984375 C 35.585938 -10.984375 38.507812 -12.59375 40.5 -15.8125 C 42.488281 -19.039062 43.484375 -23.113281 43.484375 -28.03125 C 43.484375 -32.9375 42.488281 -37.003906 40.5 -40.234375 C 38.507812 -43.472656 35.585938 -45.09375 31.734375 -45.09375 C 27.796875 -45.09375 24.828125 -43.472656 22.828125 -40.234375 C 20.828125 -37.003906 19.828125 -32.9375 19.828125 -28.03125 C 19.828125 -23.113281 20.828125 -19.039062 22.828125 -15.8125 C 24.828125 -12.59375 27.796875 -10.984375 31.734375 -10.984375 Z M 31.734375 -10.984375 "/></g></g></g><g fill="#581c87" fill-opacity="1"><g transform="translate(318.966427, 112.563358)"><g><path d="M 36.15625 -56.28125 L 36.15625 -44.546875 L 25.578125 -44.546875 L 25.578125 -17.296875 C 25.578125 -15.140625 26.0625 -13.679688 27.03125 -12.921875 C 28.007812 -12.171875 29.28125 -11.796875 30.84375 -11.796875 C 31.582031 -11.796875 32.316406 -11.863281 33.046875 -12 C 33.773438 -12.132812 34.335938 -12.238281 34.734375 -12.3125 L 37.1875 -0.703125 C 36.40625 -0.453125 35.304688 -0.164062 33.890625 0.15625 C 32.472656 0.488281 30.75 0.691406 28.71875 0.765625 C 23.050781 1.015625 18.5 -0.207031 15.0625 -2.90625 C 11.632812 -5.613281 9.9375 -9.722656 9.96875 -15.234375 L 9.96875 -44.546875 L 2.265625 -44.546875 L 2.265625 -56.28125 L 9.96875 -56.28125 L 9.96875 -69.765625 L 25.578125 -69.765625 L 25.578125 -56.28125 Z M 36.15625 -56.28125 "/></g></g></g><g fill="#581c87" fill-opacity="1"><g transform="translate(359.044731, 112.563358)"><g/></g></g><g fill="#581c87" fill-opacity="1"><g transform="translate(382.967147, 112.563358)"><g><path d="M 36.5625 -75.03125 L 52.25 -75.03125 L 52.25 -22.71875 C 52.25 -17.882812 51.164062 -13.6875 49 -10.125 C 46.84375 -6.570312 43.84375 -3.820312 40 -1.875 C 36.164062 0.0625 31.710938 1.03125 26.640625 1.03125 C 22.117188 1.03125 18.019531 0.222656 14.34375 -1.390625 C 10.664062 -3.003906 7.75 -5.445312 5.59375 -8.71875 C 3.445312 -11.988281 2.390625 -16.117188 2.421875 -21.109375 L 18.203125 -21.109375 C 18.253906 -18.128906 19.113281 -15.8125 20.78125 -14.15625 C 22.457031 -12.507812 24.675781 -11.6875 27.4375 -11.6875 C 33.46875 -11.6875 36.507812 -15.363281 36.5625 -22.71875 Z M 36.5625 -75.03125 "/></g></g></g><g fill="#581c87" fill-opacity="1"><g transform="translate(441.765763, 112.563358)"><g><path d="M 15.34375 0.953125 C 12.925781 0.953125 10.847656 0.0976562 9.109375 -1.609375 C 7.378906 -3.316406 6.53125 -5.394531 6.5625 -7.84375 C 6.53125 -10.238281 7.378906 -12.289062 9.109375 -14 C 10.847656 -15.707031 12.925781 -16.5625 15.34375 -16.5625 C 17.695312 -16.5625 19.742188 -15.707031 21.484375 -14 C 23.234375 -12.289062 24.117188 -10.238281 24.140625 -7.84375 C 24.117188 -5.394531 23.234375 -3.316406 21.484375 -1.609375 C 19.742188 0.0976562 17.695312 0.953125 15.34375 0.953125 Z M 15.34375 0.953125 "/></g></g></g><g fill="#581c87" fill-opacity="1"><g transform="translate(472.465597, 112.563358)"><g/></g></g><g fill="#581c87" fill-opacity="1"><g transform="translate(496.388012, 112.563358)"><g><path d="M 6.515625 0 L 6.515625 -75.03125 L 36.125 -75.03125 C 44.644531 -75.03125 51.253906 -72.804688 55.953125 -68.359375 C 60.660156 -63.921875 63.015625 -57.976562 63.015625 -50.53125 C 63.015625 -45.394531 61.875 -41.003906 59.59375 -37.359375 C 57.3125 -33.722656 54.03125 -30.988281 49.75 -29.15625 L 65.6875 0 L 48.171875 0 L 33.96875 -26.59375 L 22.390625 -26.59375 L 22.390625 0 Z M 22.390625 -39.34375 L 33.15625 -39.34375 C 42.164062 -39.34375 46.671875 -43.070312 46.671875 -50.53125 C 46.671875 -58.21875 42.140625 -62.0625 33.078125 -62.0625 L 22.390625 -62.0625 Z M 22.390625 -39.34375 "/></g></g></g><g fill="#581c87" fill-opacity="1"><g transform="translate(564.088833, 112.563358)"><g><path d="M 31.875 1.09375 C 26.113281 1.09375 21.144531 -0.0820312 16.96875 -2.4375 C 12.789062 -4.789062 9.578125 -8.132812 7.328125 -12.46875 C 5.078125 -16.8125 3.953125 -21.945312 3.953125 -27.875 C 3.953125 -33.664062 5.078125 -38.75 7.328125 -43.125 C 9.578125 -47.5 12.742188 -50.90625 16.828125 -53.34375 C 20.921875 -55.789062 25.726562 -57.015625 31.25 -57.015625 C 36.207031 -57.015625 40.679688 -55.960938 44.671875 -53.859375 C 48.671875 -51.753906 51.84375 -48.582031 54.1875 -44.34375 C 56.53125 -40.113281 57.703125 -34.8125 57.703125 -28.4375 L 57.703125 -24.140625 L 19.375 -24.140625 L 19.375 -24.109375 C 19.375 -19.910156 20.519531 -16.597656 22.8125 -14.171875 C 25.113281 -11.753906 28.21875 -10.546875 32.125 -10.546875 C 34.738281 -10.546875 37 -11.09375 38.90625 -12.1875 C 40.8125 -13.289062 42.15625 -14.921875 42.9375 -17.078125 L 57.375 -16.125 C 56.269531 -10.894531 53.484375 -6.71875 49.015625 -3.59375 C 44.546875 -0.46875 38.832031 1.09375 31.875 1.09375 Z M 19.375 -33.8125 L 43.015625 -33.8125 C 42.984375 -37.164062 41.90625 -39.925781 39.78125 -42.09375 C 37.65625 -44.269531 34.898438 -45.359375 31.515625 -45.359375 C 28.046875 -45.359375 25.195312 -44.234375 22.96875 -41.984375 C 20.75 -39.734375 19.550781 -37.007812 19.375 -33.8125 Z M 19.375 -33.8125 "/></g></g></g><g fill="#581c87" fill-opacity="1"><g transform="translate(625.744961, 112.563358)"><g><path d="M 31.875 1.09375 C 26.113281 1.09375 21.144531 -0.0820312 16.96875 -2.4375 C 12.789062 -4.789062 9.578125 -8.132812 7.328125 -12.46875 C 5.078125 -16.8125 3.953125 -21.945312 3.953125 -27.875 C 3.953125 -33.664062 5.078125 -38.75 7.328125 -43.125 C 9.578125 -47.5 12.742188 -50.90625 16.828125 -53.34375 C 20.921875 -55.789062 25.726562 -57.015625 31.25 -57.015625 C 36.207031 -57.015625 40.679688 -55.960938 44.671875 -53.859375 C 48.671875 -51.753906 51.84375 -48.582031 54.1875 -44.34375 C 56.53125 -40.113281 57.703125 -34.8125 57.703125 -28.4375 L 57.703125 -24.140625 L 19.375 -24.140625 L 19.375 -24.109375 C 19.375 -19.910156 20.519531 -16.597656 22.8125 -14.171875 C 25.113281 -11.753906 28.21875 -10.546875 32.125 -10.546875 C 34.738281 -10.546875 37 -11.09375 38.90625 -12.1875 C 40.8125 -13.289062 42.15625 -14.921875 42.9375 -17.078125 L 57.375 -16.125 C 56.269531 -10.894531 53.484375 -6.71875 49.015625 -3.59375 C 44.546875 -0.46875 38.832031 1.09375 31.875 1.09375 Z M 19.375 -33.8125 L 43.015625 -33.8125 C 42.984375 -37.164062 41.90625 -39.925781 39.78125 -42.09375 C 37.65625 -44.269531 34.898438 -45.359375 31.515625 -45.359375 C 28.046875 -45.359375 25.195312 -44.234375 22.96875 -41.984375 C 20.75 -39.734375 19.550781 -37.007812 19.375 -33.8125 Z M 19.375 -33.8125 "/></g></g></g><g fill="#581c87" fill-opacity="1"><g transform="translate(687.401089, 112.563358)"><g><path d="M 26.96875 0.921875 C 22.6875 0.921875 18.820312 -0.179688 15.375 -2.390625 C 11.9375 -4.609375 9.203125 -7.875 7.171875 -12.1875 C 5.148438 -16.5 4.140625 -21.789062 4.140625 -28.0625 C 4.140625 -34.507812 5.179688 -39.875 7.265625 -44.15625 C 9.359375 -48.445312 12.132812 -51.660156 15.59375 -53.796875 C 19.050781 -55.941406 22.828125 -57.015625 26.921875 -57.015625 C 30.078125 -57.015625 32.710938 -56.484375 34.828125 -55.421875 C 36.941406 -54.359375 38.648438 -53.039062 39.953125 -51.46875 C 41.253906 -49.90625 42.25 -48.359375 42.9375 -46.828125 L 43.421875 -46.828125 L 43.421875 -75.03125 L 58.984375 -75.03125 L 58.984375 0 L 43.59375 0 L 43.59375 -9.015625 L 42.9375 -9.015625 C 42.226562 -7.453125 41.203125 -5.90625 39.859375 -4.375 C 38.515625 -2.851562 36.785156 -1.585938 34.671875 -0.578125 C 32.566406 0.421875 30 0.921875 26.96875 0.921875 Z M 31.90625 -11.5 C 35.664062 -11.5 38.578125 -13.019531 40.640625 -16.0625 C 42.710938 -19.101562 43.75 -23.128906 43.75 -28.140625 C 43.75 -33.171875 42.722656 -37.171875 40.671875 -40.140625 C 38.617188 -43.109375 35.695312 -44.59375 31.90625 -44.59375 C 28.050781 -44.59375 25.113281 -43.070312 23.09375 -40.03125 C 21.082031 -36.988281 20.078125 -33.023438 20.078125 -28.140625 C 20.078125 -23.234375 21.085938 -19.234375 23.109375 -16.140625 C 25.140625 -13.046875 28.070312 -11.5 31.90625 -11.5 Z M 31.90625 -11.5 "/></g></g></g></svg>