<svg xmlns="http://www.w3.org/2000/svg" xmlns:xlink="http://www.w3.org/1999/xlink" width="500" zoomAndPan="magnify" viewBox="0 0 375 374.999991" height="500" preserveAspectRatio="xMidYMid meet" version="1.0"><defs><g/></defs><g fill="#808080" fill-opacity="1"><g transform="translate(-17.970714, 267.374982)"><g><path d="M 50.890625 -147.875 L 50.890625 -92.3125 L 111.953125 -92.3125 L 111.953125 -75.1875 L 50.890625 -75.1875 L 50.890625 -16.640625 L 125.84375 -16.640625 L 125.84375 0 L 30.046875 0 L 30.046875 -164.875 L 123.6875 -164.875 L 121.296875 -147.875 Z M 50.890625 -147.875 "/></g></g></g><g fill="#808080" fill-opacity="1"><g transform="translate(105.359154, 267.374982)"><g><path d="M 118.890625 -164.875 L 118.890625 -54.71875 C 118.890625 -47.851562 117.992188 -41.007812 116.203125 -34.1875 C 114.410156 -27.363281 111.378906 -21.175781 107.109375 -15.625 C 102.835938 -10.070312 97.066406 -5.617188 89.796875 -2.265625 C 82.535156 1.078125 73.476562 2.75 62.625 2.75 C 54.5625 2.75 46.632812 1.472656 38.84375 -1.078125 C 31.0625 -3.628906 23.898438 -7.34375 17.359375 -12.21875 L 26.578125 -25.984375 C 33.765625 -21.515625 40.3125 -18.5 46.21875 -16.9375 C 52.125 -15.382812 57.507812 -14.609375 62.375 -14.609375 C 73.875 -14.609375 82.71875 -18.28125 88.90625 -25.625 C 95.09375 -32.96875 98.1875 -43.066406 98.1875 -55.921875 L 98.1875 -147.875 L 49.328125 -147.875 L 49.328125 -164.875 Z M 118.890625 -164.875 "/></g></g></g><g fill="#808080" fill-opacity="1"><g transform="translate(228.689022, 267.374982)"><g><path d="M 128.71875 -118.65625 C 128.71875 -110.4375 126.941406 -103.253906 123.390625 -97.109375 C 119.835938 -90.960938 115.023438 -85.890625 108.953125 -81.890625 C 102.890625 -77.898438 96.066406 -74.988281 88.484375 -73.15625 L 137.328125 0 L 112.4375 0 L 67.40625 -70.765625 L 45.140625 -70.765625 L 45.140625 0 L 24.3125 0 L 24.3125 -164.875 L 66.6875 -164.875 C 87.039062 -164.875 102.46875 -160.984375 112.96875 -153.203125 C 123.46875 -145.421875 128.71875 -133.90625 128.71875 -118.65625 Z M 106.4375 -118.65625 C 106.4375 -129.269531 103.40625 -136.867188 97.34375 -141.453125 C 91.28125 -146.046875 81.863281 -148.34375 69.09375 -148.34375 L 45.140625 -148.34375 L 45.140625 -87.046875 L 69.09375 -87.046875 C 80.90625 -87.046875 90.082031 -89.457031 96.625 -94.28125 C 103.164062 -99.113281 106.4375 -107.238281 106.4375 -118.65625 Z M 106.4375 -118.65625 "/></g></g></g></svg>