<svg xmlns="http://www.w3.org/2000/svg" xmlns:xlink="http://www.w3.org/1999/xlink" width="500" zoomAndPan="magnify" viewBox="0 0 375 374.999991" height="500" preserveAspectRatio="xMidYMid meet" version="1.2"><defs/><g id="e4d33d0221"><g style="fill:#808080;fill-opacity:1;"><g transform="translate(63.529556, 251.999983)"><path style="stroke:none" d="M 91.96875 -133.984375 L 89.84375 -119.203125 L 37.921875 -119.203125 L 37.921875 -75.453125 L 83.03125 -75.453125 L 83.03125 -60.671875 L 37.921875 -60.671875 L 37.921875 -14.78125 L 93.53125 -14.78125 L 93.53125 0 L 19.453125 0 L 19.453125 -133.984375 Z M 91.96875 -133.984375 "/></g></g><g style="fill:#808080;fill-opacity:1;"><g transform="translate(151.032941, 251.999983)"><path style="stroke:none" d="M 40.828125 -18.671875 C 40.828125 -5.441406 37.941406 4.472656 32.171875 11.078125 C 26.410156 17.691406 17.628906 22.878906 5.828125 26.640625 L 0.96875 13.21875 C 6.9375 10.882812 11.410156 8.359375 14.390625 5.640625 C 17.367188 2.921875 19.441406 -0.378906 20.609375 -4.265625 C 21.773438 -8.160156 22.359375 -13.222656 22.359375 -19.453125 L 22.359375 -133.984375 L 40.828125 -133.984375 Z M 40.828125 -18.671875 "/></g></g><g style="fill:#808080;fill-opacity:1;"><g transform="translate(193.81235, 251.999983)"><path style="stroke:none" d="M 58.71875 -56.78125 L 37.921875 -56.78125 L 37.921875 0 L 19.453125 0 L 19.453125 -133.984375 L 54.640625 -133.984375 C 71.359375 -133.984375 84.03125 -130.804688 92.65625 -124.453125 C 101.28125 -118.097656 105.59375 -108.632812 105.59375 -96.0625 C 105.59375 -86.726562 103.191406 -79.144531 98.390625 -73.3125 C 93.597656 -67.476562 86.335938 -63.070312 76.609375 -60.09375 L 112.78125 0 L 90.8125 0 Z M 56.578125 -70.96875 C 66.304688 -70.96875 73.632812 -72.945312 78.5625 -76.90625 C 83.488281 -80.863281 85.953125 -87.25 85.953125 -96.0625 C 85.953125 -104.351562 83.453125 -110.347656 78.453125 -114.046875 C 73.460938 -117.742188 65.460938 -119.59375 54.453125 -119.59375 L 37.921875 -119.59375 L 37.921875 -70.96875 Z M 56.578125 -70.96875 "/></g></g></g></svg>