<svg xmlns="http://www.w3.org/2000/svg" xmlns:xlink="http://www.w3.org/1999/xlink" width="500" zoomAndPan="magnify" viewBox="0 0 375 374.999991" height="500" preserveAspectRatio="xMidYMid meet" version="1.0"><defs><g/></defs><g fill="#808080" fill-opacity="1"><g transform="translate(58.450566, 238.438555)"><g><path d="M 32.609375 -94.75 L 32.609375 -59.15625 L 71.734375 -59.15625 L 71.734375 -48.1875 L 32.609375 -48.1875 L 32.609375 -10.671875 L 80.640625 -10.671875 L 80.640625 0 L 19.265625 0 L 19.265625 -105.65625 L 79.265625 -105.65625 L 77.71875 -94.75 Z M 32.609375 -94.75 "/></g></g></g><g fill="#808080" fill-opacity="1"><g transform="translate(137.482599, 238.438555)"><g><path d="M 76.1875 -105.65625 L 76.1875 -35.0625 C 76.1875 -30.664062 75.609375 -26.28125 74.453125 -21.90625 C 73.304688 -17.53125 71.363281 -13.566406 68.625 -10.015625 C 65.894531 -6.460938 62.203125 -3.609375 57.546875 -1.453125 C 52.890625 0.691406 47.082031 1.765625 40.125 1.765625 C 34.957031 1.765625 29.878906 0.945312 24.890625 -0.6875 C 19.910156 -2.320312 15.320312 -4.703125 11.125 -7.828125 L 17.03125 -16.65625 C 21.632812 -13.789062 25.828125 -11.859375 29.609375 -10.859375 C 33.398438 -9.859375 36.851562 -9.359375 39.96875 -9.359375 C 47.332031 -9.359375 53 -11.710938 56.96875 -16.421875 C 60.9375 -21.128906 62.921875 -27.597656 62.921875 -35.828125 L 62.921875 -94.75 L 31.609375 -94.75 L 31.609375 -105.65625 Z M 76.1875 -105.65625 "/></g></g></g><g fill="#808080" fill-opacity="1"><g transform="translate(216.514631, 238.438555)"><g><path d="M 82.484375 -76.03125 C 82.484375 -70.769531 81.34375 -66.164062 79.0625 -62.21875 C 76.789062 -58.28125 73.707031 -55.03125 69.8125 -52.46875 C 65.925781 -49.914062 61.554688 -48.050781 56.703125 -46.875 L 88 0 L 72.046875 0 L 43.203125 -45.34375 L 28.921875 -45.34375 L 28.921875 0 L 15.578125 0 L 15.578125 -105.65625 L 42.734375 -105.65625 C 55.773438 -105.65625 65.660156 -103.160156 72.390625 -98.171875 C 79.117188 -93.179688 82.484375 -85.800781 82.484375 -76.03125 Z M 68.203125 -76.03125 C 68.203125 -82.832031 66.257812 -87.703125 62.375 -90.640625 C 58.488281 -93.585938 52.453125 -95.0625 44.265625 -95.0625 L 28.921875 -95.0625 L 28.921875 -55.78125 L 44.265625 -55.78125 C 51.835938 -55.78125 57.71875 -57.328125 61.90625 -60.421875 C 66.101562 -63.515625 68.203125 -68.71875 68.203125 -76.03125 Z M 68.203125 -76.03125 "/></g></g></g></svg>