<svg xmlns="http://www.w3.org/2000/svg" xmlns:xlink="http://www.w3.org/1999/xlink" width="1024" zoomAndPan="magnify" viewBox="0 0 768 767.999994" height="1024" preserveAspectRatio="xMidYMid meet" version="1.0"><defs><g/><clipPath id="id1"><path d="M 14.984375 211.535156 L 751.484375 211.535156 L 751.484375 556.535156 L 14.984375 556.535156 Z M 14.984375 211.535156 " clip-rule="nonzero"/></clipPath></defs><g clip-path="url(#id1)"><path fill="#d9d9d9" d="M 701.542969 556.535156 L 64.925781 556.535156 C 37.410156 556.535156 14.992188 534.109375 14.992188 506.582031 L 14.992188 261.488281 C 14.992188 233.964844 37.410156 211.535156 64.925781 211.535156 L 701.542969 211.535156 C 729.058594 211.535156 751.476562 233.964844 751.476562 261.488281 L 751.476562 506.582031 C 751.476562 534.109375 729.058594 556.535156 701.542969 556.535156 " fill-opacity="1" fill-rule="nonzero"/></g><path fill="#166534" d="M 24.609375 493.617188 L 200.832031 493.617188 L 200.832031 518.777344 L 24.609375 518.777344 Z M 24.609375 493.617188 " fill-opacity="1" fill-rule="nonzero"/><g fill="#166534" fill-opacity="1"><g transform="translate(24.61065, 479.241888)"><g><path d="M 153.640625 -59.828125 L 22.609375 -2.140625 L 22.609375 -39.828125 L 111.109375 -75.375 L 111.109375 -77.046875 L 22.609375 -112.59375 L 22.609375 -150.28125 L 153.640625 -92.59375 Z M 153.640625 -59.828125 "/></g></g></g><g fill="#6b21a8" fill-opacity="1"><g transform="translate(200.830609, 479.241888)"><g/></g></g><g fill="#6b21a8" fill-opacity="1"><g transform="translate(261.56416, 479.241888)"><g><path d="M 16.5625 0 L 16.5625 -190.578125 L 144.984375 -190.578125 L 144.984375 -157.359375 L 56.859375 -157.359375 L 56.859375 -111.953125 L 138.375 -111.953125 L 138.375 -78.71875 L 56.859375 -78.71875 L 56.859375 -33.21875 L 145.359375 -33.21875 L 145.359375 0 Z M 16.5625 0 "/></g></g></g><g fill="#6b21a8" fill-opacity="1"><g transform="translate(422.074562, 479.241888)"><g><path d="M 92.875 -190.578125 L 132.703125 -190.578125 L 132.703125 -57.6875 C 132.703125 -45.40625 129.957031 -34.75 124.46875 -25.71875 C 118.976562 -16.695312 111.359375 -9.71875 101.609375 -4.78125 C 91.867188 0.144531 80.550781 2.609375 67.65625 2.609375 C 56.175781 2.609375 45.765625 0.5625 36.421875 -3.53125 C 27.085938 -7.625 19.691406 -13.828125 14.234375 -22.140625 C 8.773438 -30.453125 6.078125 -40.9375 6.140625 -53.59375 L 46.25 -53.59375 C 46.375 -46.03125 48.5625 -40.15625 52.8125 -35.96875 C 57.0625 -31.78125 62.691406 -29.6875 69.703125 -29.6875 C 85.023438 -29.6875 92.75 -39.019531 92.875 -57.6875 Z M 92.875 -190.578125 "/></g></g></g><g fill="#6b21a8" fill-opacity="1"><g transform="translate(571.419007, 479.241888)"><g><path d="M 16.5625 0 L 16.5625 -190.578125 L 91.75 -190.578125 C 113.40625 -190.578125 130.203125 -184.929688 142.140625 -173.640625 C 154.085938 -162.347656 160.0625 -147.242188 160.0625 -128.328125 C 160.0625 -115.296875 157.160156 -104.15625 151.359375 -94.90625 C 145.554688 -85.664062 137.226562 -78.722656 126.375 -74.078125 L 166.84375 0 L 122.375 0 L 86.265625 -67.5625 L 56.859375 -67.5625 L 56.859375 0 Z M 56.859375 -99.9375 L 84.21875 -99.9375 C 107.101562 -99.9375 118.546875 -109.398438 118.546875 -128.328125 C 118.546875 -147.867188 107.039062 -157.640625 84.03125 -157.640625 L 56.859375 -157.640625 Z M 56.859375 -99.9375 "/></g></g></g></svg>