<svg xmlns="http://www.w3.org/2000/svg" xmlns:xlink="http://www.w3.org/1999/xlink" width="1024" zoomAndPan="magnify" viewBox="0 0 768 767.999994" height="1024" preserveAspectRatio="xMidYMid meet" version="1.0"><defs><g/></defs><path fill="#166534" d="M 85.191406 473.832031 L 231.722656 473.832031 L 231.722656 495.582031 L 85.191406 495.582031 Z M 85.191406 473.832031 " fill-opacity="1" fill-rule="nonzero"/><g fill="#166534" fill-opacity="1"><g transform="translate(85.190111, 462.581949)"><g><path d="M 127.734375 -49.75 L 18.796875 -1.78125 L 18.796875 -33.109375 L 92.375 -62.671875 L 92.375 -64.0625 L 18.796875 -93.625 L 18.796875 -124.953125 L 127.734375 -76.984375 Z M 127.734375 -49.75 "/></g></g></g><g fill="#000000" fill-opacity="1"><g transform="translate(231.721354, 462.581949)"><g/></g></g><g fill="#6b21a8" fill-opacity="1"><g transform="translate(282.240886, 462.581949)"><g><path d="M 13.765625 0 L 13.765625 -158.453125 L 120.546875 -158.453125 L 120.546875 -130.828125 L 47.265625 -130.828125 L 47.265625 -93.078125 L 115.046875 -93.078125 L 115.046875 -65.453125 L 47.265625 -65.453125 L 47.265625 -27.625 L 120.859375 -27.625 L 120.859375 0 Z M 13.765625 0 "/></g></g></g><g fill="#6b21a8" fill-opacity="1"><g transform="translate(415.694004, 462.581949)"><g><path d="M 77.21875 -158.453125 L 110.328125 -158.453125 L 110.328125 -47.96875 C 110.328125 -37.757812 108.046875 -28.898438 103.484375 -21.390625 C 98.921875 -13.890625 92.585938 -8.085938 84.484375 -3.984375 C 76.390625 0.117188 66.976562 2.171875 56.25 2.171875 C 46.707031 2.171875 38.050781 0.46875 30.28125 -2.9375 C 22.519531 -6.34375 16.367188 -11.5 11.828125 -18.40625 C 7.296875 -25.320312 5.054688 -34.039062 5.109375 -44.5625 L 38.453125 -44.5625 C 38.554688 -38.269531 40.375 -33.382812 43.90625 -29.90625 C 47.4375 -26.425781 52.117188 -24.6875 57.953125 -24.6875 C 70.691406 -24.6875 77.113281 -32.445312 77.21875 -47.96875 Z M 77.21875 -158.453125 "/></g></g></g><g fill="#6b21a8" fill-opacity="1"><g transform="translate(539.869055, 462.581949)"><g><path d="M 13.765625 0 L 13.765625 -158.453125 L 76.28125 -158.453125 C 94.289062 -158.453125 108.257812 -153.757812 118.1875 -144.375 C 128.113281 -134.988281 133.078125 -122.425781 133.078125 -106.6875 C 133.078125 -95.863281 130.664062 -86.609375 125.84375 -78.921875 C 121.019531 -71.234375 114.09375 -65.457031 105.0625 -61.59375 L 138.71875 0 L 101.734375 0 L 71.71875 -56.171875 L 47.265625 -56.171875 L 47.265625 0 Z M 47.265625 -83.09375 L 70.015625 -83.09375 C 89.046875 -83.09375 98.5625 -90.957031 98.5625 -106.6875 C 98.5625 -122.9375 88.992188 -131.0625 69.859375 -131.0625 L 47.265625 -131.0625 Z M 47.265625 -83.09375 "/></g></g></g></svg>