<svg xmlns="http://www.w3.org/2000/svg" xmlns:xlink="http://www.w3.org/1999/xlink" width="1024" zoomAndPan="magnify" viewBox="0 0 768 767.999994" height="1024" preserveAspectRatio="xMidYMid meet" version="1.0"><defs><g/></defs><path fill="#14532d" d="M 128.160156 461.699219 L 253.566406 461.699219 L 253.566406 478.054688 L 128.160156 478.054688 Z M 128.160156 461.699219 " fill-opacity="1" fill-rule="nonzero"/><g fill="#14532d" fill-opacity="1"><g transform="translate(128.160347, 450.79263)"><g><path d="M 109.359375 -42.59375 L 16.09375 -1.53125 L 16.09375 -28.34375 L 79.09375 -53.65625 L 79.09375 -54.84375 L 16.09375 -80.15625 L 16.09375 -106.984375 L 109.359375 -65.90625 Z M 109.359375 -42.59375 "/></g></g></g><g fill="#000000" fill-opacity="1"><g transform="translate(253.566915, 450.79263)"><g/></g></g><g fill="#581c87" fill-opacity="1"><g transform="translate(296.803214, 450.79263)"><g><path d="M 11.796875 0 L 11.796875 -135.65625 L 103.203125 -135.65625 L 103.203125 -112.015625 L 40.46875 -112.015625 L 40.46875 -79.6875 L 98.5 -79.6875 L 98.5 -56.03125 L 40.46875 -56.03125 L 40.46875 -23.640625 L 103.46875 -23.640625 L 103.46875 0 Z M 11.796875 0 "/></g></g></g><g fill="#581c87" fill-opacity="1"><g transform="translate(411.006681, 450.79263)"><g><path d="M 66.109375 -135.65625 L 94.453125 -135.65625 L 94.453125 -41.0625 C 94.453125 -32.320312 92.5 -24.738281 88.59375 -18.3125 C 84.6875 -11.882812 79.265625 -6.914062 72.328125 -3.40625 C 65.398438 0.101562 57.34375 1.859375 48.15625 1.859375 C 39.988281 1.859375 32.582031 0.398438 25.9375 -2.515625 C 19.289062 -5.429688 14.023438 -9.847656 10.140625 -15.765625 C 6.253906 -21.679688 4.332031 -29.144531 4.375 -38.15625 L 32.921875 -38.15625 C 33.003906 -32.769531 34.554688 -28.582031 37.578125 -25.59375 C 40.609375 -22.613281 44.617188 -21.125 49.609375 -21.125 C 60.515625 -21.125 66.015625 -27.769531 66.109375 -41.0625 Z M 66.109375 -135.65625 "/></g></g></g><g fill="#581c87" fill-opacity="1"><g transform="translate(517.29869, 450.79263)"><g><path d="M 11.796875 0 L 11.796875 -135.65625 L 65.3125 -135.65625 C 80.726562 -135.65625 92.6875 -131.632812 101.1875 -123.59375 C 109.6875 -115.5625 113.9375 -104.8125 113.9375 -91.34375 C 113.9375 -82.070312 111.867188 -74.144531 107.734375 -67.5625 C 103.609375 -60.976562 97.679688 -56.035156 89.953125 -52.734375 L 118.765625 0 L 87.109375 0 L 61.40625 -48.09375 L 40.46875 -48.09375 L 40.46875 0 Z M 40.46875 -71.140625 L 59.953125 -71.140625 C 76.242188 -71.140625 84.390625 -77.875 84.390625 -91.34375 C 84.390625 -105.25 76.195312 -112.203125 59.8125 -112.203125 L 40.46875 -112.203125 Z M 40.46875 -71.140625 "/></g></g></g></svg>