<svg xmlns="http://www.w3.org/2000/svg" xmlns:xlink="http://www.w3.org/1999/xlink" width="1200" zoomAndPan="magnify" viewBox="0 0 900 494.999988" height="660" preserveAspectRatio="xMidYMid meet" version="1.0"><defs><g/></defs><g fill="#808080" fill-opacity="1"><g transform="translate(-74.772996, 459.913915)"><g><path d="M 128.75 -374.140625 L 128.75 -233.578125 L 283.25 -233.578125 L 283.25 -190.25 L 128.75 -190.25 L 128.75 -42.109375 L 318.390625 -42.109375 L 318.390625 0 L 76.046875 0 L 76.046875 -417.15625 L 312.9375 -417.15625 L 306.890625 -374.140625 Z M 128.75 -374.140625 "/></g></g></g><g fill="#808080" fill-opacity="1"><g transform="translate(237.259488, 459.913915)"><g><path d="M 300.828125 -417.15625 L 300.828125 -138.453125 C 300.828125 -121.078125 298.550781 -103.753906 294 -86.484375 C 289.457031 -69.222656 281.785156 -53.570312 270.984375 -39.53125 C 260.179688 -25.5 245.585938 -14.238281 227.203125 -5.75 C 208.828125 2.726562 185.90625 6.96875 158.4375 6.96875 C 138.039062 6.96875 117.992188 3.738281 98.296875 -2.71875 C 78.609375 -9.1875 60.484375 -18.582031 43.921875 -30.90625 L 67.25 -65.734375 C 85.425781 -54.429688 101.988281 -46.804688 116.9375 -42.859375 C 131.882812 -38.921875 145.515625 -36.953125 157.828125 -36.953125 C 186.910156 -36.953125 209.28125 -46.242188 224.9375 -64.828125 C 240.59375 -83.410156 248.421875 -108.957031 248.421875 -141.46875 L 248.421875 -374.140625 L 124.8125 -374.140625 L 124.8125 -417.15625 Z M 300.828125 -417.15625 "/></g></g></g><g fill="#808080" fill-opacity="1"><g transform="translate(549.291973, 459.913915)"><g><path d="M 325.671875 -300.21875 C 325.671875 -279.414062 321.175781 -261.238281 312.1875 -245.6875 C 303.195312 -230.132812 291.023438 -217.304688 275.671875 -207.203125 C 260.328125 -197.109375 243.0625 -189.738281 223.875 -185.09375 L 347.484375 0 L 284.46875 0 L 170.5625 -179.046875 L 114.203125 -179.046875 L 114.203125 0 L 61.5 0 L 61.5 -417.15625 L 168.734375 -417.15625 C 220.234375 -417.15625 259.265625 -407.304688 285.828125 -387.609375 C 312.390625 -367.921875 325.671875 -338.789062 325.671875 -300.21875 Z M 269.3125 -300.21875 C 269.3125 -327.082031 261.632812 -346.316406 246.28125 -357.921875 C 230.9375 -369.535156 207.109375 -375.34375 174.796875 -375.34375 L 114.203125 -375.34375 L 114.203125 -220.234375 L 174.796875 -220.234375 C 204.691406 -220.234375 227.914062 -226.34375 244.46875 -238.5625 C 261.03125 -250.78125 269.3125 -271.332031 269.3125 -300.21875 Z M 269.3125 -300.21875 "/></g></g></g></svg>